<?xml version="1.0" encoding="utf-8"?>
<!-- Generator: Adobe Illustrator 17.0.0, SVG Export Plug-In . SVG Version: 6.00 Build 0)  -->
<!DOCTYPE svg PUBLIC "-//W3C//DTD SVG 1.1//EN" "http://www.w3.org/Graphics/SVG/1.1/DTD/svg11.dtd">
<svg version="1.1" xmlns="http://www.w3.org/2000/svg" xmlns:xlink="http://www.w3.org/1999/xlink" x="0px" y="0px" width="19px"
	 height="16px" viewBox="0 0 19 16" enable-background="new 0 0 19 16" xml:space="preserve">
<g id="图层_1" display="none">
	<g id="Home" display="inline">
		<g>
			<path fill-rule="evenodd" clip-rule="evenodd" fill="#1B1B1B" d="M17.477,8.021l-7.474-7.829C9.91,0.095,9.78,0.04,9.645,0.04
				c-0.136,0-0.265,0.055-0.359,0.153L1.773,8.021c-0.19,0.198-0.184,0.513,0.015,0.704C1.986,8.915,2.3,8.91,2.491,8.711
				l0.669-0.697v7.449c0,0.275,0.223,0.498,0.498,0.498h3.478c0.274,0,0.497-0.222,0.498-0.496l0.016-4.973h3.967v4.972
				c0,0.275,0.223,0.498,0.498,0.498h3.477c0.275,0,0.498-0.223,0.498-0.498V8.01l0.669,0.701c0.098,0.102,0.229,0.153,0.359,0.153
				c0.124,0,0.248-0.046,0.345-0.139C17.661,8.535,17.668,8.22,17.477,8.021z M15.094,7.11v7.854h-2.481V9.993
				c0-0.275-0.223-0.498-0.498-0.498H7.154c-0.274,0-0.497,0.222-0.498,0.496L6.64,14.965H4.156V7.11
				c0-0.039-0.014-0.075-0.022-0.111l5.511-5.742l5.474,5.735C15.108,7.031,15.094,7.068,15.094,7.11z"/>
		</g>
	</g>
</g>
<g id="图层_2" display="none">
	
		<circle display="inline" fill-rule="evenodd" clip-rule="evenodd" fill="none" stroke="#000000" stroke-width="0.5" stroke-miterlimit="10" cx="9.695" cy="4.526" r="4.087"/>
	
		<path display="inline" fill-rule="evenodd" clip-rule="evenodd" fill="none" stroke="#000000" stroke-width="0.5" stroke-miterlimit="10" d="
		M9.5,8.904c-3.429,0-6.209,2.78-6.209,6.21h12.419C15.709,11.684,12.929,8.904,9.5,8.904z"/>
	
		<rect x="3.575" y="14.635" display="inline" fill-rule="evenodd" clip-rule="evenodd" fill="#FFFFFF" width="11.872" height="1.376"/>
</g>
<g id="图层_3">
	<g>
		<path fill="#E60012" d="M14.313,5.589c0,1.252,0,2.395,0,3.579c0.293-0.019,0.531-0.034,0.783-0.051
			c0.03-0.395,0.056-0.736,0.087-1.152c0.608,0,1.179,0.006,1.751-0.002c0.795-0.011,1.317-0.44,1.363-1.105
			c0.045-0.649-0.537-1.238-1.313-1.264C16.111,5.566,15.237,5.589,14.313,5.589z"/>
		<path fill="#E60012" d="M8.44,8.885c0.639-1.028,1.252-2.072,1.926-3.076c0.349-0.52,0.865-0.515,1.226,0.012
			c0.685,0.998,1.311,2.037,1.929,3.196c-1.691-0.743-3.009-0.925-4.673-0.061C8.828,8.876,8.461,8.964,8.44,8.885z M10.151,7.622
			c0.628,0,1.07,0,1.725,0c-0.393-0.401-0.652-0.666-0.912-0.931C10.72,6.97,10.476,7.249,10.151,7.622z"/>
		<path fill="#E60012" d="M14.313,5.589c0.924,0,1.798-0.022,2.67,0.007c0.776,0.026,1.358,0.615,1.313,1.264
			c-0.046,0.665-0.568,1.094-1.363,1.105c-0.571,0.008-1.143,0.002-1.751,0.002c-0.031,0.416-0.057,0.756-0.087,1.152
			c-0.252,0.016-0.49,0.032-0.783,0.051C14.313,7.983,14.313,6.841,14.313,5.589z M14.94,6.414c0.241,0.387,0.348,0.754,0.509,0.78
			c0.488,0.078,1.002,0.06,1.496,0.002c0.16-0.019,0.293-0.277,0.438-0.426c-0.166-0.119-0.325-0.325-0.5-0.339
			C16.339,6.386,15.789,6.414,14.94,6.414z"/>
		<path fill="#E60012" d="M3.119,5.596c0.343,0,0.591,0,0.913,0c0,0.727,0.012,1.421-0.004,2.114
			c-0.01,0.42,0.161,0.634,0.586,0.632c0.026,0,0.052,0,0.078,0.001c1.672,0.113,1.702,0.085,1.702-1.57c0-0.382,0-0.764,0-1.179
			c0.325,0,0.572,0,0.899,0c0,0.895,0.041,1.771-0.013,2.642c-0.042,0.668-0.512,0.988-1.159,1.01
			C5.501,9.268,4.878,9.273,4.258,9.245C3.491,9.211,3.134,8.834,3.122,8.074C3.109,7.274,3.119,6.474,3.119,5.596z"/>
		<path fill="#E60012" d="M14.94,6.414c0.85,0,1.399-0.028,1.943,0.016c0.175,0.014,0.334,0.221,0.5,0.339
			c-0.145,0.149-0.277,0.407-0.438,0.426c-0.495,0.058-1.008,0.076-1.496-0.002C15.287,7.168,15.181,6.801,14.94,6.414z"/>
	</g>
	<circle fill-rule="evenodd" clip-rule="evenodd" fill="#727171" cx="1.274" cy="5.842" r="0.573"/>
	<rect x="0.701" y="6.743" fill-rule="evenodd" clip-rule="evenodd" fill="#727171" width="1.146" height="2.301"/>
	<polygon fill="#E60012" points="10.964,6.691 9.661,9.044 8.322,9.044 10.123,6.179 	"/>
	<polygon fill="#E60012" points="10.981,6.691 12.283,9.044 13.504,9.044 11.822,6.179 	"/>
	<rect x="14.655" y="6.01" fill="#E60012" width="0.692" height="1.364"/>
	<path fill="#FFFFFF" d="M15.347,6.405c0,0,1.892-0.158,2.035,0.364c0,0,0.306,0.633-2.035,0.476V6.405z"/>
	<rect x="14.309" y="7.804" fill="#E60012" width="0.835" height="1.381"/>
</g>
</svg>
